<svg width="18" height="18" viewBox="0 0 18 18" fill="none" xmlns="http://www.w3.org/2000/svg">
<path d="M15.2133 2.78236C14.4053 1.97027 13.4429 1.32638 12.3822 0.888256C11.3214 0.450132 10.1837 0.22654 9.0352 0.230521C4.22314 0.230521 0.301219 4.13282 0.301219 8.9208C0.301219 10.4554 0.706631 11.9462 1.46457 13.2616L0.230713 17.7689L4.85769 16.5588C6.13562 17.2515 7.57219 17.6199 9.0352 17.6199C13.8473 17.6199 17.7692 13.7176 17.7692 8.92957C17.7692 6.60573 16.8614 4.4222 15.2133 2.78236ZM9.0352 16.1466C7.73083 16.1466 6.4529 15.7959 5.33361 15.1382L5.06921 14.9803L2.31946 15.6994L3.05097 13.0336L2.8747 12.7617C2.15003 11.6103 1.76523 10.2794 1.76423 8.9208C1.76423 4.93958 5.02515 1.69498 9.02638 1.69498C10.9653 1.69498 12.7897 2.44913 14.1557 3.81713C14.8321 4.48706 15.3682 5.28392 15.7328 6.16151C16.0974 7.0391 16.2833 7.97996 16.2797 8.92957C16.2974 12.9108 13.0364 16.1466 9.0352 16.1466ZM13.0188 10.7448C12.7985 10.6396 11.7233 10.1134 11.5294 10.0345C11.3267 9.96434 11.1856 9.92926 11.0358 10.1397C10.886 10.359 10.4718 10.85 10.3484 10.9903C10.225 11.1394 10.0928 11.1569 9.87246 11.043C9.65213 10.9377 8.94706 10.701 8.11861 9.96434C7.46643 9.38557 7.03458 8.67527 6.90238 8.45604C6.77899 8.2368 6.88475 8.12281 6.99932 8.00881C7.09627 7.91234 7.21966 7.7545 7.32542 7.63173C7.43118 7.50896 7.47524 7.4125 7.54575 7.27219C7.61626 7.12312 7.581 7.00035 7.52812 6.89512C7.47524 6.78989 7.03458 5.72004 6.85831 5.28158C6.68205 4.86066 6.49697 4.91328 6.36477 4.90451H5.94173C5.7919 4.90451 5.56276 4.95712 5.36005 5.17635C5.16616 5.39558 4.60211 5.92174 4.60211 6.99158C4.60211 8.06142 5.38649 9.09619 5.49225 9.2365C5.59801 9.38557 7.03458 11.5779 9.22027 12.5162C9.74026 12.7442 10.1457 12.8757 10.4629 12.9722C10.9829 13.1388 11.4589 13.1125 11.8378 13.0599C12.2609 12.9985 13.1334 12.5337 13.3096 12.0251C13.4947 11.5165 13.4947 11.0868 13.433 10.9903C13.3713 10.8939 13.2391 10.85 13.0188 10.7448Z" fill="white"/>
</svg>
