<svg width="18" height="18" viewBox="0 0 18 18" fill="none" xmlns="http://www.w3.org/2000/svg">
<path d="M17.855 7.361C17.8466 7.31572 17.8226 7.27482 17.7871 7.24541C17.7517 7.21599 17.7071 7.19993 17.661 7.2H9.2C9.14696 7.2 9.09609 7.22107 9.05858 7.25858C9.02108 7.29609 9 7.34696 9 7.4V10.6C9 10.71 9.09 10.8 9.2 10.8H14.086C13.6609 11.9997 12.8255 13.0106 11.7274 13.6541C10.6294 14.2977 9.33919 14.5326 8.08475 14.3172C6.83032 14.1019 5.69232 13.4502 4.87172 12.4773C4.05112 11.5044 3.6007 10.2728 3.6 9C3.6 7.56783 4.16893 6.19432 5.18163 5.18162C6.19432 4.16893 7.56783 3.6 9 3.6C10.257 3.59958 11.4744 4.04016 12.44 4.845C12.479 4.87802 12.5289 4.8953 12.5799 4.89345C12.631 4.8916 12.6795 4.87076 12.716 4.835L14.982 2.568C15.001 2.54912 15.0159 2.52657 15.0259 2.50172C15.0359 2.47688 15.0407 2.45026 15.04 2.42349C15.0394 2.39673 15.0333 2.37038 15.0221 2.34605C15.0109 2.32172 14.9949 2.29993 14.975 2.282C13.3322 0.811599 11.2047 -0.000960687 9 8.52399e-07C7.21997 8.52399e-07 5.47991 0.527842 3.99987 1.51677C2.51983 2.50571 1.36628 3.91131 0.685088 5.55585C0.00389951 7.20039 -0.17433 9.00998 0.172937 10.7558C0.520203 12.5016 1.37737 14.1053 2.63604 15.364C3.89472 16.6226 5.49836 17.4798 7.24419 17.8271C8.99002 18.1743 10.7996 17.9961 12.4442 17.3149C14.0887 16.6337 15.4943 15.4802 16.4832 14.0001C17.4722 12.5201 18 10.78 18 9C18 8.453 17.949 7.887 17.855 7.361Z" fill="#4A5644"/>
</svg>
