<?xml version="1.0" standalone="no"?>
<!DOCTYPE svg PUBLIC "-//W3C//DTD SVG 20010904//EN"
 "http://www.w3.org/TR/2001/REC-SVG-20010904/DTD/svg10.dtd">
<svg version="1.0" xmlns="http://www.w3.org/2000/svg"
 width="178.000000pt" height="178.000000pt" viewBox="0 0 178.000000 178.000000"
 preserveAspectRatio="xMidYMid meet">
<metadata>
Created by potrace 1.14, written by Peter Selinger 2001-2017
</metadata>
<g transform="translate(0.000000,178.000000) scale(0.100000,-0.100000)"
fill="#000000" stroke="none">
<path d="M411 1701 c-12 -8 -15 -86 -15 -485 -1 -310 -4 -476 -11 -477 -143
-12 -215 -43 -286 -120 -65 -73 -94 -184 -73 -288 23 -112 85 -189 194 -240
55 -26 57 -26 342 -29 l288 -3 -1 73 c0 40 0 110 0 156 l1 83 53 -3 52 -3 0
-150 0 -150 409 0 c282 0 410 3 413 11 2 7 -96 10 -326 10 l-329 -1 -4 40 c-2
23 -1 165 2 315 l5 275 115 -1 c121 0 143 2 134 17 -3 5 -35 9 -72 8 -37 0
-93 -1 -124 0 l-57 1 -3 290 -3 291 -32 28 -32 28 347 1 c409 0 382 -1 382 12
0 7 -139 9 -412 8 l-413 -3 -1 -492 c-1 -271 -2 -497 -3 -503 0 -5 -23 -10
-51 -10 -48 0 -50 1 -50 28 0 15 -1 241 -3 502 l-2 475 -81 2 -80 1 0 -325 c1
-205 -3 -327 -9 -332 -5 -4 -34 -7 -64 -7 l-53 1 1 488 2 487 -68 0 c-37 0
-74 -4 -82 -9z m-16 -1158 l0 -168 135 -3 c74 -1 140 -4 145 -6 6 -2 9 -42 8
-97 -1 -105 11 -145 53 -170 25 -15 11 -16 -197 -15 -216 1 -225 2 -256 24
-136 97 -143 449 -11 568 29 27 44 32 88 33 l35 1 0 -167z m288 27 c-1 -74 -2
-144 -2 -156 -1 -19 -7 -20 -91 -20 -49 1 -90 4 -90 8 0 4 9 13 20 21 30 21
37 54 38 172 0 61 1 111 1 113 1 2 29 2 63 0 l62 -3 -1 -135z"/>
</g>
</svg>
