<svg xmlns="http://www.w3.org/2000/svg">
    <symbol id="icon-te" viewBox="0 0 18 16">
        <g>
            <path d="M16.5854 0.787506L1.04965 6.74025C-0.0105975 7.16339 -0.00446367 7.75109 0.855126 8.01316L4.84376 9.24951L14.0723 3.46393C14.5087 3.20012 14.9074 3.34204 14.5796 3.6311L7.10271 10.3361H7.10095L7.10271 10.337L6.82757 14.4221C7.23064 14.4221 7.40851 14.2384 7.63458 14.0216L9.57194 12.1497L13.6018 15.1074C14.3448 15.514 14.8784 15.305 15.0633 14.4239L17.7087 2.03604C17.9795 0.957286 17.2942 0.468842 16.5854 0.787506Z"/>
        </g>
    </symbol>
    <symbol id="icon-wa" viewBox="0 0 18 18">
        <g>
            <path d="M15.2133 2.78236C14.4053 1.97027 13.4429 1.32638 12.3822 0.888256C11.3214 0.450132 10.1837 0.22654 9.0352 0.230521C4.22314 0.230521 0.301219 4.13282 0.301219 8.9208C0.301219 10.4554 0.706631 11.9462 1.46457 13.2616L0.230713 17.7689L4.85769 16.5588C6.13562 17.2515 7.57219 17.6199 9.0352 17.6199C13.8473 17.6199 17.7692 13.7176 17.7692 8.92957C17.7692 6.60573 16.8614 4.4222 15.2133 2.78236ZM9.0352 16.1466C7.73083 16.1466 6.4529 15.7959 5.33361 15.1382L5.06921 14.9803L2.31946 15.6994L3.05097 13.0336L2.8747 12.7617C2.15003 11.6103 1.76523 10.2794 1.76423 8.9208C1.76423 4.93958 5.02515 1.69498 9.02638 1.69498C10.9653 1.69498 12.7897 2.44913 14.1557 3.81713C14.8321 4.48706 15.3682 5.28392 15.7328 6.16151C16.0974 7.0391 16.2833 7.97996 16.2797 8.92957C16.2974 12.9108 13.0364 16.1466 9.0352 16.1466ZM13.0188 10.7448C12.7985 10.6396 11.7233 10.1134 11.5294 10.0345C11.3267 9.96434 11.1856 9.92926 11.0358 10.1397C10.886 10.359 10.4718 10.85 10.3484 10.9903C10.225 11.1394 10.0928 11.1569 9.87246 11.043C9.65213 10.9377 8.94706 10.701 8.11861 9.96434C7.46643 9.38557 7.03458 8.67527 6.90238 8.45604C6.77899 8.2368 6.88475 8.12281 6.99932 8.00881C7.09627 7.91234 7.21966 7.7545 7.32542 7.63173C7.43118 7.50896 7.47524 7.4125 7.54575 7.27219C7.61626 7.12312 7.581 7.00035 7.52812 6.89512C7.47524 6.78989 7.03458 5.72004 6.85831 5.28158C6.68205 4.86066 6.49697 4.91328 6.36477 4.90451H5.94173C5.7919 4.90451 5.56276 4.95712 5.36005 5.17635C5.16616 5.39558 4.60211 5.92174 4.60211 6.99158C4.60211 8.06142 5.38649 9.09619 5.49225 9.2365C5.59801 9.38557 7.03458 11.5779 9.22027 12.5162C9.74026 12.7442 10.1457 12.8757 10.4629 12.9722C10.9829 13.1388 11.4589 13.1125 11.8378 13.0599C12.2609 12.9985 13.1334 12.5337 13.3096 12.0251C13.4947 11.5165 13.4947 11.0868 13.433 10.9903C13.3713 10.8939 13.2391 10.85 13.0188 10.7448Z"/>
        </g>
    </symbol>
    <symbol id="icon-vi" viewBox="0 0 22 22">
        <g>
            <path d="M11.0001 19.1849C13.1708 19.1849 15.2525 18.3226 16.7875 16.7877C18.3224 15.2528 19.1847 13.171 19.1847 11.0003C19.1847 8.82961 18.3224 6.74782 16.7875 5.2129C15.2525 3.67799 13.1708 2.81569 11.0001 2.81569C8.82936 2.81569 6.74757 3.67799 5.21266 5.2129C3.67775 6.74782 2.81544 8.82961 2.81544 11.0003C2.81544 13.171 3.67775 15.2528 5.21266 16.7877C6.74757 18.3226 8.82936 19.1849 11.0001 19.1849ZM11.0001 21.2311C5.3496 21.2311 0.769287 16.6508 0.769287 11.0003C0.769287 5.34985 5.3496 0.769531 11.0001 0.769531C16.6505 0.769531 21.2308 5.34985 21.2308 11.0003C21.2308 16.6508 16.6505 21.2311 11.0001 21.2311Z"/>
            <path d="M14.7281 10.3898C14.7404 8.86339 13.481 7.46382 11.9208 7.27046L11.8185 7.25512C11.7402 7.23958 11.6608 7.23068 11.5811 7.22852C11.2609 7.22852 11.176 7.45973 11.1535 7.59785C11.1407 7.65521 11.1395 7.71454 11.1501 7.77235C11.1606 7.83017 11.1826 7.88528 11.2148 7.93444C11.3212 8.08278 11.5074 8.10836 11.6568 8.13087C11.7008 8.13701 11.7427 8.14212 11.7765 8.15133C13.1791 8.4736 13.6518 8.98207 13.882 10.4174C13.8881 10.4533 13.8902 10.4962 13.8922 10.5423C13.9025 10.7131 13.9239 11.0702 14.2963 11.0702C14.327 11.0702 14.3598 11.0681 14.3946 11.062C14.7414 11.0078 14.7301 10.6814 14.725 10.5249C14.7224 10.4871 14.7224 10.4491 14.725 10.4113C14.7261 10.4045 14.7268 10.3977 14.7271 10.3908L14.7281 10.3898Z"/>
            <path d="M11.4911 6.71016C11.532 6.71323 11.5729 6.7163 11.6046 6.72141C13.9065 7.08767 14.9665 8.21306 15.2601 10.6091C15.2652 10.65 15.2652 10.6991 15.2662 10.7523C15.2693 10.9396 15.2754 11.3283 15.6806 11.3365H15.6928C15.7485 11.3395 15.8041 11.3305 15.856 11.3102C15.9078 11.2899 15.9548 11.2588 15.9936 11.2189C16.1195 11.0828 16.1113 10.8812 16.1041 10.7175C16.1021 10.6787 16.1 10.6408 16.101 10.6081C16.1297 8.15781 14.0754 5.93569 11.7039 5.85384L11.6752 5.85486C11.6661 5.85621 11.6568 5.85689 11.6476 5.85691C11.6241 5.85691 11.5944 5.85486 11.5637 5.85282C11.5229 5.84909 11.4819 5.84704 11.4409 5.84668C11.0634 5.84668 10.9918 6.12291 10.9826 6.28865C10.9621 6.67026 11.3192 6.69788 11.4911 6.71016ZM15.1486 13.7049C15.0993 13.6663 15.0505 13.6271 15.0023 13.5873C14.7506 13.3786 14.4825 13.1862 14.2247 13C14.1708 12.9612 14.1169 12.9224 14.0631 12.8834C13.7316 12.644 13.4339 12.5263 13.1525 12.5263C12.774 12.5263 12.4435 12.7432 12.1704 13.1699C12.0497 13.3581 11.9023 13.4502 11.7223 13.4502C11.5966 13.4457 11.4733 13.4139 11.3611 13.3571C10.292 12.8558 9.52778 12.0885 9.09092 11.0756C8.88017 10.5845 8.94769 10.2653 9.32009 10.0045C9.53085 9.85714 9.92371 9.58193 9.89608 9.05505C9.86539 8.45655 8.58552 6.65593 8.04636 6.45132C7.81636 6.36452 7.56274 6.36379 7.33225 6.44927C6.71329 6.66412 6.26825 7.04266 6.04625 7.5409C5.8314 8.02379 5.84163 8.58955 6.07489 9.17884C6.74705 10.8833 7.69135 12.3688 8.88426 13.5944C10.0506 14.7945 11.4849 15.7767 13.1464 16.5153C13.2958 16.5818 13.4533 16.6176 13.5679 16.6442L13.6651 16.6688C13.6784 16.6726 13.6922 16.6747 13.706 16.6749H13.7193C14.501 16.6749 15.4391 15.9383 15.7276 15.0973C15.9803 14.3607 15.5189 13.9975 15.1486 13.706V13.7049ZM11.8369 8.65707C11.7039 8.66014 11.4246 8.6673 11.3263 8.9599C11.2813 9.09699 11.2864 9.21567 11.3427 9.31286C11.4256 9.45609 11.5852 9.50009 11.7294 9.52362C12.2533 9.61058 12.5233 9.91034 12.5765 10.4648C12.6021 10.7247 12.7709 10.9048 12.9878 10.9048C13.0042 10.9051 13.0206 10.9044 13.0369 10.9027C13.2978 10.87 13.4237 10.6725 13.4124 10.3145C13.4165 9.94001 13.2272 9.51646 12.905 9.17884C12.5817 8.83918 12.1919 8.64786 11.8369 8.65707Z"/>
        </g>
    </symbol>
    <symbol id="icon-ar" viewBox="0 0 87 8">
        <g>
            <path d="M86.3536 4.35355C86.5488 4.15829 86.5488 3.84171 86.3536 3.64645L83.1716 0.464466C82.9763 0.269204 82.6597 0.269204 82.4645 0.464466C82.2692 0.659728 82.2692 0.976311 82.4645 1.17157L85.2929 4L82.4645 6.82843C82.2692 7.02369 82.2692 7.34027 82.4645 7.53553C82.6597 7.7308 82.9763 7.7308 83.1716 7.53553L86.3536 4.35355ZM0 4.5H86V3.5H0V4.5Z"/>
        </g>
    </symbol>
</svg>