<svg width="341" height="318" viewBox="0 0 341 318" fill="none" xmlns="http://www.w3.org/2000/svg">
<g opacity="0.08">
<path d="M63.8117 317.45H159.053C159.244 317.438 159.424 317.357 159.559 317.222C159.694 317.087 159.775 316.907 159.787 316.716V60.9969C159.772 60.809 159.689 60.6331 159.554 60.5013C159.419 60.3695 159.241 60.2907 159.053 60.2793H129.381C128.647 60.2793 128.279 60.6465 128.279 60.9969V187.83H63.8117C46.7944 188.103 30.5657 195.055 18.628 207.186C6.69021 219.316 0 235.654 0 252.673C0 269.693 6.69021 286.03 18.628 298.161C30.5657 310.292 46.7944 317.244 63.8117 317.517V317.45ZM63.8117 192.369H128.279V292.167C128.279 302.797 134.871 309.54 144.033 313.211H63.8117C45.4543 313.211 30.4346 287.411 30.4346 252.598C30.4346 218.17 45.4543 192.369 63.8117 192.369Z" fill="#D69AAB"/>
<path d="M80.2158 0C78.3522 0.00438481 76.566 0.745491 75.2467 2.06167C73.9274 3.37786 73.1825 5.16234 73.1737 7.02589C73.0569 48.2133 72.4729 256.453 72.4729 256.453C72.4729 257.187 72.8395 257.555 73.19 257.555L207.684 258.289C208.051 258.289 208.418 257.922 208.418 257.187C208.418 256.82 208.051 254.05 207.684 254.05L88.2097 253.316C97.3717 249.294 103.964 242.902 103.964 232.271C103.964 232.271 104.698 0 103.964 0H80.2158Z" fill="#D69AAB"/>
<path d="M340.725 64.0347C341.092 62.5213 341.092 60.9421 340.725 59.4287H181.366C180.999 59.4287 180.632 60.163 180.632 60.5302V315.865C180.632 316.599 180.999 316.967 181.366 316.967H340.725C341.089 315.577 341.089 314.117 340.725 312.728H212.14V191.902H260.853C261.588 191.902 261.588 187.296 260.853 187.296H212.14V85.079C212.14 74.4484 205.548 67.7062 196.386 64.0347H340.725Z" fill="#D69AAB"/>
</g>
</svg>
